<?xml version="1.0" encoding="UTF-8" standalone="no"?>
<svg
   xmlns:dc="http://purl.org/dc/elements/1.1/"
   xmlns:cc="http://creativecommons.org/ns#"
   xmlns:rdf="http://www.w3.org/1999/02/22-rdf-syntax-ns#"
   xmlns:svg="http://www.w3.org/2000/svg"
   xmlns="http://www.w3.org/2000/svg"
   xmlns:sodipodi="http://sodipodi.sourceforge.net/DTD/sodipodi-0.dtd"
   xmlns:inkscape="http://www.inkscape.org/namespaces/inkscape"
   inkscape:version="1.0 (4035a4fb49, 2020-05-01)"
   sodipodi:docname="login-logo.svg"
   id="svg2849"
   version="1.1"
   viewBox="0 0 200 40"
   height="40px"
   width="200px">
  <metadata
     id="metadata2855">
    <rdf:RDF>
      <cc:Work
         rdf:about="">
        <dc:format>image/svg+xml</dc:format>
        <dc:type
           rdf:resource="http://purl.org/dc/dcmitype/StillImage" />
      </cc:Work>
    </rdf:RDF>
  </metadata>
  <defs
     id="defs2853">
    <rect
       x="215.23989"
       y="61.147695"
       width="173.28316"
       height="76.763876"
       id="rect859" />
    <rect
       id="rect3518"
       height="84.879422"
       width="184.65931"
       y="-18.093419"
       x="234.15013" />
    <rect
       id="rect3512"
       height="98.715566"
       width="156.98702"
       y="79.025668"
       x="178.27339" />
  </defs>
  <sodipodi:namedview
     inkscape:current-layer="g932"
     inkscape:window-maximized="1"
     inkscape:window-y="-8"
     inkscape:window-x="-8"
     inkscape:cy="17.893499"
     inkscape:cx="116.55108"
     inkscape:zoom="5.315"
     showgrid="false"
     id="namedview2851"
     inkscape:window-height="1017"
     inkscape:window-width="1920"
     inkscape:pageshadow="2"
     inkscape:pageopacity="0"
     guidetolerance="10"
     gridtolerance="10"
     objecttolerance="10"
     borderopacity="1"
     bordercolor="#666666"
     pagecolor="#ffffff"
     inkscape:document-rotation="0" />
  <!-- Generator: Sketch 54 (76480) - https://sketchapp.com -->
  <title
     id="title2828">logo</title>
  <desc
     id="desc2830">Created with Sketch.</desc>
  <g
     fill-rule="evenodd"
     fill="none"
     stroke-width="1"
     stroke="none"
     id="页面1">
    <g
       fill-rule="nonzero"
       id="logo">
      <g
         transform="matrix(1.3635379,0,0,1.3635379,-6.2440229,-7.6909327)"
         id="g932">
        <path
           style="fill:#c0571a;fill-opacity:1;stroke-width:0.102251"
           d="m 23.369198,26.705765 a 1.33142,1.33142 0 0 1 -1.12116,0.613504 1.33142,1.33142 0 0 1 -0.15737,-0.0096 c -0.0669,0.259064 -0.15236,0.73303 -0.31234,1.634419 -0.14473,0.815453 -0.28888,1.609164 -0.32034,1.763824 l -0.0573,0.281193 4.48166,-0.006 c 1.98731,-0.0027 3.26267,-0.01901 3.88373,-0.04933 a 1.3314202,1.3314202 0 0 1 0.0455,-0.308952 c -0.87155,-0.544096 -3.17619,-1.95283 -4.73149,-2.889183 z"
           id="path1039-3" />
        <path
           style="fill:#c0571a;fill-opacity:1;stroke-width:0.102251"
           d="m 20.996668,26.442547 -0.53502,0.174946 c -0.40254,0.131539 -2.78741,0.950443 -5.29986,1.819745 -2.29644,0.794561 -3.44112,1.195888 -4.02033,1.435902 a 1.3314202,1.3314202 0 0 1 0.0333,0.295371 1.3314202,1.3314202 0 0 1 -0.15338,0.620094 c 0.0722,0.01812 0.15238,0.03671 0.24464,0.05652 0.41737,0.08964 1.96082,0.129333 5.26651,0.1354 l 4.67598,0.0086 0.0527,-0.230067 c 0.0592,-0.258252 0.50752,-2.755322 0.6151,-3.425395 0.004,-0.02501 0.005,-0.04235 0.008,-0.0651 a 1.33142,1.33142 0 0 1 -0.8877,-0.826 z"
           id="path1037-2" />
        <path
           style="fill:#c0571a;fill-opacity:1;stroke-width:0.102251"
           d="m 27.239948,22.446784 c -0.24784,0.09767 -0.74391,0.455057 -1.99289,1.378984 -0.95044,0.70309 -1.59429,1.214241 -1.85988,1.472851 a 1.33142,1.33142 0 0 1 0.19232,0.689193 1.33142,1.33142 0 0 1 -0.12323,0.559183 l 1.1655,0.701378 c 0.73991,0.445206 1.5525,0.940503 1.80557,1.100594 0.25307,0.160091 1.21797,0.746114 2.14427,1.302299 l 1.30669,0.784652 a 1.3314202,1.3314202 0 0 1 1.10339,-0.790445 c -0.22173,-0.633264 -0.67226,-1.883983 -1.20264,-3.334329 l -1.32247,-3.615723 a 1.3314202,1.3314202 0 0 1 -0.37266,0.05332 1.3314202,1.3314202 0 0 1 -0.84397,-0.301957 z"
           id="path1035-8" />
        <path
           style="fill:#c0571a;fill-opacity:1;stroke-width:0.102251"
           d="m 17.760188,22.215922 a 1.3314199,1.3314199 0 0 1 -0.85595,0.311745 1.3314199,1.3314199 0 0 1 -0.80103,-0.26801 l -0.0178,4.09e-4 -2.90476,3.646279 c -1.22786,1.541297 -2.06265,2.622105 -2.49635,3.230082 a 1.3314202,1.3314202 0 0 1 0.39542,0.538416 c 0.0278,-0.0098 0.0403,-0.01364 0.0705,-0.02438 1.8366,-0.650405 9.12958,-3.158063 9.59319,-3.298583 0.0836,-0.02531 0.15034,-0.0497 0.2049,-0.07529 a 1.33142,1.33142 0 0 1 -0.0318,-0.288778 1.33142,1.33142 0 0 1 0.28439,-0.8222 c -0.11396,-0.16287 -0.38856,-0.403181 -0.97857,-0.89749 -0.60832,-0.509643 -1.42808,-1.208903 -1.82174,-1.553733 -0.29891,-0.261823 -0.49652,-0.418157 -0.64047,-0.498471 z"
           id="path1033-2" />
        <path
           style="fill:#c0571a;fill-opacity:1;stroke-width:0.102251"
           d="m 29.214068,22.12086 a 1.3314202,1.3314202 0 0 1 -0.58295,0.510053 l 0.14858,0.41779 c 0.10316,0.289992 0.58594,1.608533 1.07284,2.930124 0.48689,1.32159 1.025,2.794005 1.19585,3.272025 0.0463,0.129603 0.10033,0.263577 0.15737,0.394223 a 1.3314202,1.3314202 0 0 1 1.22262,1.326862 1.3314202,1.3314202 0 0 1 -2.1e-4,0.0094 c 0.1845,0.0023 0.4228,-0.0023 0.72215,-0.01399 1.02978,-0.04031 1.31365,-0.09142 1.9877,-0.357281 1.53273,-0.604542 2.63258,-1.608689 3.37028,-3.077107 0.40737,-0.810892 0.48598,-1.188382 0.26581,-1.276739 -0.14301,-0.05738 -5.71779,-2.470216 -7.54099,-3.26383 -0.64674,-0.281517 -1.39594,-0.605664 -1.66477,-0.720349 z"
           id="path1031-5" />
        <path
           style="fill:#c0571a;fill-opacity:1;stroke-width:0.102251"
           d="m 15.531838,21.479794 c -0.17076,0 -6.1851197,0.729581 -8.0045097,0.970983 -0.31882,0.0423 -0.61977,0.08076 -0.84776,0.108642 a 1.3314202,1.3314202 0 0 1 -1.32806,1.235197 1.3314202,1.3314202 0 0 1 -0.0793,-0.0023 l 0.0435,0.37705 c 0.23537,2.038132 1.20877,3.836741 2.77655,5.129908 0.18445,0.152145 0.36419,0.289768 0.50826,0.391631 a 1.3314202,1.3314202 0 0 1 1.24278,-0.853755 1.3314202,1.3314202 0 0 1 0.6109097,0.148582 c 0.41731,-0.463415 1.15135,-1.383695 2.60999,-3.215505 l 2.89537,-3.635891 a 1.3314199,1.3314199 0 0 1 -0.34969,-0.626284 c -0.0286,-0.01758 -0.0554,-0.02817 -0.0781,-0.02817 z"
           id="path1029-6" />
        <path
           style="fill:#c0571a;fill-opacity:1;stroke-width:0.102251"
           d="m 19.128198,21.428669 c -0.45019,0 -0.73185,0.0019 -0.91587,0.01619 a 1.3314199,1.3314199 0 0 1 -0.24903,0.558384 c 0.20818,0.243493 0.67522,0.661491 1.6426,1.504204 1.07184,0.933725 1.53779,1.329741 1.782,1.464264 a 1.33142,1.33142 0 0 1 0.86014,-0.315339 1.33142,1.33142 0 0 1 0.91626,0.365467 c 0.26154,-0.122341 0.76256,-0.485892 1.93558,-1.347434 0.90088,-0.661672 1.66156,-1.230335 1.93138,-1.441891 a 1.3314202,1.3314202 0 0 1 -0.26542,-0.62809 l -3.11704,-0.08528 c -1.81795,-0.04978 -3.8523,-0.09047 -4.5206,-0.09047 z"
           id="path1027-0" />
        <path
           style="fill:#c0571a;fill-opacity:1;stroke-width:0.102251"
           d="m 35.632298,19.133819 a 1.3314202,1.3314202 0 0 1 -1.06624,0.534222 1.3314202,1.3314202 0 0 1 -1.03409,-0.492682 c -0.33788,0.113318 -0.92187,0.376949 -2.04342,0.906476 l -2.11651,0.999341 a 1.3314202,1.3314202 0 0 1 0.0433,0.336108 1.3314202,1.3314202 0 0 1 -0.12681,0.566974 l 4.67857,2.021048 c 2.62971,1.135932 4.85024,2.05552 4.93459,2.043617 0.20398,-0.02883 0.3255,-0.932025 0.24584,-1.828328 -0.0745,-0.838625 -0.51667,-2.149766 -0.9554,-2.833467 -0.47695,-0.743258 -1.65266,-1.806813 -2.41068,-2.180612 -0.0567,-0.02794 -0.10158,-0.04963 -0.14918,-0.0727 z"
           id="path1025-3" />
        <path
           style="fill:#c0571a;fill-opacity:1;stroke-width:0.102251"
           d="m 12.030558,15.867391 c -0.0934,0.0049 -0.29196,0.04856 -0.71236,0.136996 -2.5999497,0.546917 -4.7081297,2.377467 -5.5558897,4.824157 l -0.11663,0.336309 a 1.3314202,1.3314202 0 0 1 1.03249,1.18607 c 1.41565,-0.157709 6.2707697,-0.746156 8.1039697,-0.985761 l 0.79244,-0.103447 a 1.3314199,1.3314199 0 0 1 -0.002,-0.0655 1.3314199,1.3314199 0 0 1 0.32233,-0.868733 l -1.83337,-2.063193 c -1.07243,-1.206932 -1.94976,-2.242643 -1.94976,-2.301439 0,-0.0665 0.0117,-0.100333 -0.0817,-0.09546 z"
           id="path1023-0" />
        <path
           style="fill:#c0571a;fill-opacity:1;stroke-width:0.102251"
           d="m 22.108048,14.81013 a 1.3314202,1.3314202 0 0 1 -0.86714,0.320932 1.3314202,1.3314202 0 0 1 -0.54261,-0.115629 c -0.14766,0.25412 -0.82487,1.367328 -1.65558,2.719028 -0.8215,1.336709 -1.22681,1.996836 -1.40235,2.352366 a 1.3314199,1.3314199 0 0 1 0.59233,1.021907 c 0.59882,0.08078 2.12594,0.131818 5.94512,0.230867 1.37782,0.03571 2.52427,0.08193 2.54769,0.102649 0.009,0.0081 0.0185,0.01302 0.0277,0.01859 a 1.3314202,1.3314202 0 0 1 -8.2e-4,-0.04353 1.3314202,1.3314202 0 0 1 0.35268,-0.902685 c -0.0649,-0.103277 -0.16291,-0.219624 -0.29856,-0.364064 -0.18486,-0.19684 -1.34327,-1.5082 -2.57424,-2.914151 z"
           id="path1021-4" />
        <path
           style="fill:#c0571a;fill-opacity:1;stroke-width:0.102251"
           d="m 19.998718,14.278308 c -0.38499,0.0861 -1.62262,0.352826 -3.0807,0.663033 -1.60278,0.340993 -3.28225,0.699179 -3.73215,0.796037 -0.44991,0.09686 -0.80543,0.220722 -0.79004,0.275198 0.0154,0.05448 0.86661,1.050659 1.89163,2.213771 1.02578,1.163965 1.52293,1.70577 1.79239,1.924389 a 1.3314199,1.3314199 0 0 1 0.82439,-0.285983 1.3314199,1.3314199 0 0 1 0.53342,0.111435 c 0.0334,-0.04789 0.0687,-0.101631 0.11004,-0.16935 0.14217,-0.232761 0.51287,-0.837299 0.8238,-1.343441 1.27227,-2.071009 1.8736,-3.05136 2.14407,-3.547419 a 1.3314202,1.3314202 0 0 1 -0.51685,-0.63767 z"
           id="path1019-6" />
        <path
           style="fill:#c0571a;fill-opacity:1;stroke-width:0.102251"
           d="m 30.977498,14.177056 c -0.39366,-0.0019 -0.88104,0.05405 -1.08282,0.124417 l -0.36687,0.128014 -0.28199,1.556728 c -0.15509,0.856271 -0.39488,2.212871 -0.53282,3.0146 l -0.19891,1.156511 a 1.3314202,1.3314202 0 0 1 0.79344,0.735127 c 0.34445,-0.146653 1.17914,-0.531753 2.1291,-0.984363 l 1.96053,-0.934038 a 1.3314202,1.3314202 0 0 1 -0.16256,-0.637468 1.3314202,1.3314202 0 0 1 1.09281,-1.309688 c -0.32254,-1.626445 -1.73922,-2.842014 -3.34991,-2.84984 z"
           id="path1017-44" />
        <path
           style="fill:#c0571a;fill-opacity:1;stroke-width:0.102251"
           d="m 22.548798,14.049644 a 1.3314202,1.3314202 0 0 1 -0.25583,0.565974 c 0.40057,0.595476 1.61362,1.999479 4.61686,5.395321 l 0.33172,0.37505 a 1.3314202,1.3314202 0 0 1 0.84237,-0.300159 1.3314202,1.3314202 0 0 1 0.21229,0.01697 c 0.22753,-1.165948 0.99661,-5.385176 0.99495,-5.484396 -4.1e-4,-0.03389 -0.49545,-0.09217 -1.1,-0.129611 -1.1545,-0.07153 -4.50565,-0.332703 -5.41549,-0.421982 -0.0901,-0.0089 -0.16246,-0.01411 -0.22687,-0.01716 z"
           id="path1015-8" />
        <path
           style="fill:#c0571a;fill-opacity:1;stroke-width:0.102251"
           d="m 17.149878,9.358092 c -0.0784,0.03011 -0.47085,0.24626 -0.87192,0.480497 -0.98519,0.57538 -2.34645,1.963492 -2.92533,2.983045 -0.45721,0.805247 -1.03237,2.299875 -1.03469,2.689476 -10e-4,0.213422 0.011,0.21501 0.63787,0.08028 0.35148,-0.07554 1.92742,-0.417446 3.50208,-0.759891 1.57466,-0.342446 3.12251,-0.673367 3.43978,-0.735328 0.0162,-0.0031 0.028,-0.0058 0.0433,-0.0088 a 1.3314202,1.3314202 0 0 1 -0.0313,-0.287777 1.3314202,1.3314202 0 0 1 0.45014,-0.997943 l -1.35023,-1.539954 c -1.10936,-1.265245 -1.76754,-1.938983 -1.85968,-1.903622 z"
           id="path1013-6" />
        <path
           style="fill:#c0571a;fill-opacity:1;stroke-width:0.102251"
           d="m 24.367748,9.263232 c -0.0603,3.07e-4 -0.1018,0.0233 -0.1422,0.0657 -0.0715,0.07498 -0.63165,0.96463 -1.24478,1.976914 l -0.8897,1.469056 a 1.3314202,1.3314202 0 0 1 0.4813,1.024705 1.3314202,1.3314202 0 0 1 -0.002,0.0651 c 0.25057,0.03401 1.39842,0.132234 2.73181,0.232262 2.62829,0.19716 3.88552,0.257629 3.88552,0.186926 0,-0.0211 -0.11674,-0.302126 -0.25922,-0.624286 -0.74938,-1.694393 -2.32885,-3.339381 -4.02337,-4.190484 -0.28517,-0.143234 -0.43739,-0.206354 -0.53781,-0.205898 z"
           id="path1011-9" />
        <path
           style="fill:#c0571a;fill-opacity:1;stroke-width:0.102251"
           d="m 21.099118,8.522911 c -0.43072,-0.0071 -0.92764,0.01712 -1.28553,0.0669 -0.84729,0.117854 -2.18985,0.507135 -2.21656,0.642659 -0.008,0.04066 0.72182,0.924105 1.62163,1.963136 l 1.29152,1.491224 a 1.3314202,1.3314202 0 0 1 0.73073,-0.218682 1.3314202,1.3314202 0 0 1 0.66483,0.177941 l 0.96419,-1.55473 c 0.6586,-1.061809 1.16318,-1.964856 1.12117,-2.006872 -0.14915,-0.149154 -1.65334,-0.477625 -2.49077,-0.543806 -0.12125,-0.0096 -0.25764,-0.01542 -0.40121,-0.01778 z"
           id="path898-7" />
        <path
           d="m 48.468368,13.778083 q 3.042975,0 4.67244,1.079765 1.629464,1.060133 1.629464,3.494514 0,2.454012 -1.649097,3.55341 -1.649096,1.079765 -4.711703,1.079765 h -0.961973 v 4.554647 H 44.384891 V 14.13146 q 1.001237,-0.196321 2.120267,-0.274849 1.11903,-0.07853 1.96321,-0.07853 z m 0.196321,2.611069 q -0.333746,0 -0.667491,0.01963 -0.314114,0.01963 -0.549699,0.03926 v 3.92642 h 0.961973 q 1.5902,0 2.395116,-0.431906 0.804916,-0.431907 0.804916,-1.609832 0,-0.569331 -0.215953,-0.942341 -0.196321,-0.37301 -0.588963,-0.588963 -0.37301,-0.235585 -0.922709,-0.314114 -0.549699,-0.09816 -1.21719,-0.09816 z"
           style="font-style:normal;font-variant:normal;font-weight:bold;font-stretch:normal;font-size:19.6321px;line-height:1.25;font-family:Ubuntu;-inkscape-font-specification:Ubuntu;fill:#ffffff;fill-opacity:1;stroke:none;stroke-width:0.102251"
           id="path943" />
        <path
           d="m 61.023709,13.778083 q 3.062607,0 4.692072,1.099397 1.629464,1.079766 1.629464,3.376721 0,1.433143 -0.667491,2.33622 -0.64786,0.883444 -1.884682,1.393879 0.412274,0.510435 0.863812,1.177926 0.451539,0.647859 0.883445,1.374247 0.451538,0.706755 0.863812,1.492039 0.412274,0.765652 0.765652,1.511672 h -3.435617 q -0.37301,-0.667491 -0.765652,-1.354615 -0.37301,-0.687123 -0.785284,-1.334983 -0.392642,-0.647859 -0.785284,-1.21719 -0.392642,-0.588963 -0.785284,-1.060133 H 60.101 v 4.966921 H 57.038393 V 14.13146 q 1.001237,-0.196321 2.06137,-0.274849 1.079766,-0.07853 1.923946,-0.07853 z m 0.176689,2.611069 q -0.333746,0 -0.608595,0.01963 -0.255217,0.01963 -0.490803,0.03926 v 3.690835 h 0.863813 q 1.727624,0 2.473644,-0.431907 0.74602,-0.431906 0.74602,-1.472407 0,-1.001237 -0.765652,-1.413511 -0.74602,-0.431906 -2.218427,-0.431906 z"
           style="font-style:normal;font-variant:normal;font-weight:bold;font-stretch:normal;font-size:19.6321px;line-height:1.25;font-family:Ubuntu;-inkscape-font-specification:Ubuntu;fill:#ffffff;fill-opacity:1;stroke:none;stroke-width:0.102251"
           id="path945" />
        <path
           d="m 72.378732,20.727846 q 0,1.001237 0.235585,1.806153 0.255217,0.804916 0.706755,1.393879 0.471171,0.569331 1.138662,0.883444 0.667491,0.314114 1.531304,0.314114 0.84418,0 1.511671,-0.314114 0.687124,-0.314113 1.138662,-0.883444 0.471171,-0.588963 0.706756,-1.393879 0.255217,-0.804916 0.255217,-1.806153 0,-1.001237 -0.255217,-1.806154 -0.235585,-0.824548 -0.706756,-1.393879 -0.451538,-0.588963 -1.138662,-0.903076 -0.667491,-0.314114 -1.511671,-0.314114 -0.863813,0 -1.531304,0.333746 -0.667491,0.314114 -1.138662,0.903077 -0.451538,0.56933 -0.706755,1.393879 -0.235585,0.804916 -0.235585,1.786521 z m 10.38538,0 q 0,1.747256 -0.530067,3.082239 -0.510434,1.315351 -1.413511,2.218427 -0.903076,0.883445 -2.159531,1.334983 -1.236822,0.451538 -2.669965,0.451538 -1.393879,0 -2.630701,-0.451538 -1.236823,-0.451538 -2.159531,-1.334983 -0.922709,-0.903076 -1.452776,-2.218427 -0.530066,-1.334983 -0.530066,-3.082239 0,-1.747257 0.549698,-3.062608 0.549699,-1.334983 1.472408,-2.238059 0.942341,-0.903077 2.159531,-1.354615 1.236822,-0.451538 2.591437,-0.451538 1.393879,0 2.630701,0.451538 1.236822,0.451538 2.159531,1.354615 0.922709,0.903076 1.452775,2.238059 0.530067,1.315351 0.530067,3.062608 z"
           style="font-style:normal;font-variant:normal;font-weight:bold;font-stretch:normal;font-size:19.6321px;line-height:1.25;font-family:Ubuntu;-inkscape-font-specification:Ubuntu;fill:#ffffff;fill-opacity:1;stroke:none;stroke-width:0.102251"
           id="path947" />
        <path
           d="m 88.84362,27.540184 q -0.804916,-1.707993 -1.5902,-3.55341 -0.785284,-1.845417 -1.492039,-3.65157 -0.706756,-1.806153 -1.315351,-3.45525 -0.588963,-1.649096 -1.020869,-2.944815 h 3.376721 q 0.392642,1.177926 0.84418,2.552173 0.471171,1.354615 0.942341,2.70923 0.490802,1.354615 0.942341,2.591437 0.451538,1.236822 0.84418,2.139899 0.37301,-0.903077 0.824548,-2.139899 0.471171,-1.236822 0.942341,-2.591437 0.490802,-1.354615 0.942341,-2.70923 0.47117,-1.374247 0.863812,-2.552173 h 3.258928 q -0.451538,1.295719 -1.040501,2.944815 -0.588963,1.649097 -1.295718,3.45525 -0.706756,1.806153 -1.49204,3.65157 -0.785284,1.845417 -1.5902,3.55341 z"
           style="font-style:normal;font-variant:normal;font-weight:bold;font-stretch:normal;font-size:19.6321px;line-height:1.25;font-family:Ubuntu;-inkscape-font-specification:Ubuntu;fill:#ffffff;fill-opacity:1;stroke:none;stroke-width:0.102251"
           id="path949" />
        <path
           d="M 98.884693,27.532173 V 13.927128 h 9.187827 v 2.571805 h -6.12522 v 2.669966 h 5.43809 v 2.512909 h -5.43809 v 3.27856 h 6.57675 v 2.571805 z"
           style="font-style:normal;font-variant:normal;font-weight:bold;font-stretch:normal;font-size:19.6321px;line-height:1.25;font-family:Ubuntu;-inkscape-font-specification:Ubuntu;opacity:0.6;fill:#f9f9f9;fill-opacity:0.79;stroke:none;stroke-width:0.102251"
           id="path934" />
        <path
           d="m 113.83392,25.038897 q 0.21596,0.01963 0.49081,0.03926 0.29448,0 0.68712,0 2.29695,0 3.39635,-1.158294 1.11903,-1.158294 1.11903,-3.200032 0,-2.139899 -1.06013,-3.239297 -1.06014,-1.099397 -3.35709,-1.099397 -0.31411,0 -0.64786,0.01963 -0.33375,0 -0.62823,0.03926 z m 8.85408,-4.319062 q 0,1.766889 -0.5497,3.082239 -0.5497,1.315351 -1.57057,2.179163 -1.00123,0.863813 -2.45401,1.295719 -1.45277,0.431906 -3.25893,0.431906 -0.82455,0 -1.92394,-0.07853 -1.0994,-0.0589 -2.15953,-0.27485 V 14.103817 q 1.06013,-0.196321 2.19879,-0.255217 1.15829,-0.07853 1.98284,-0.07853 1.74726,0 3.16077,0.392642 1.43314,0.392642 2.45401,1.236822 1.02087,0.84418 1.57057,2.159531 0.5497,1.31535 0.5497,3.160768 z"
           style="font-style:normal;font-variant:normal;font-weight:bold;font-stretch:normal;font-size:19.6321px;line-height:1.25;font-family:Ubuntu;-inkscape-font-specification:Ubuntu;opacity:0.6;fill:#f9f9f9;fill-opacity:0.79;stroke:none;stroke-width:0.102251"
           id="path936" />
        <path
           d="m 131.86263,16.28298 q -2.1399,0 -3.10187,1.197558 -0.94234,1.177926 -0.94234,3.239297 0,1.001237 0.23558,1.825785 0.23559,0.804916 0.70676,1.393879 0.47117,0.588963 1.17793,0.922709 0.70675,0.314113 1.64909,0.314113 0.51044,0 0.86381,-0.01963 0.37301,-0.01963 0.64786,-0.07853 v -4.731336 h 3.06261 v 6.73381 q -0.5497,0.215953 -1.76689,0.451538 -1.21719,0.255217 -3.00371,0.255217 -1.5313,0 -2.78776,-0.47117 -1.23682,-0.47117 -2.12026,-1.374247 -0.88345,-0.903076 -1.37425,-2.218427 -0.47117,-1.315351 -0.47117,-3.003711 0,-1.707993 0.53007,-3.023344 0.53006,-1.31535 1.45277,-2.218427 0.92271,-0.922708 2.15953,-1.393879 1.25646,-0.47117 2.66997,-0.47117 0.96197,0 1.72762,0.137425 0.78529,0.117792 1.33498,0.294481 0.56934,0.157057 0.92271,0.333746 0.37301,0.176689 0.53007,0.274849 l -0.88344,2.454013 q -0.62823,-0.333746 -1.45278,-0.569331 -0.80492,-0.255218 -1.76689,-0.255218 z"
           style="font-style:normal;font-variant:normal;font-weight:bold;font-stretch:normal;font-size:19.6321px;line-height:1.25;font-family:Ubuntu;-inkscape-font-specification:Ubuntu;opacity:0.6;fill:#f9f9f9;fill-opacity:0.79;stroke:none;stroke-width:0.102251"
           id="path938" />
        <path
           d="M 138.99246,27.532173 V 13.927128 h 9.18782 v 2.571805 h -6.12521 v 2.669966 h 5.43809 v 2.512909 h -5.43809 v 3.27856 h 6.57675 v 2.571805 z"
           style="font-style:normal;font-variant:normal;font-weight:bold;font-stretch:normal;font-size:19.6321px;line-height:1.25;font-family:Ubuntu;-inkscape-font-specification:Ubuntu;opacity:0.6;fill:#f9f9f9;fill-opacity:0.79;stroke:none;stroke-width:0.102251"
           id="path940" />
      </g>
    </g>
  </g>
</svg>
