<?xml version="1.0" encoding="UTF-8" standalone="no"?>
<svg
   xmlns:dc="http://purl.org/dc/elements/1.1/"
   xmlns:cc="http://creativecommons.org/ns#"
   xmlns:rdf="http://www.w3.org/1999/02/22-rdf-syntax-ns#"
   xmlns:svg="http://www.w3.org/2000/svg"
   xmlns="http://www.w3.org/2000/svg"
   xmlns:sodipodi="http://sodipodi.sourceforge.net/DTD/sodipodi-0.dtd"
   xmlns:inkscape="http://www.inkscape.org/namespaces/inkscape"
   width="428px"
   height="90px"
   viewBox="0 0 428 90"
   version="1.1"
   id="svg2161"
   sodipodi:docname="logo.svg"
   inkscape:version="1.0 (4035a4fb49, 2020-05-01)">
  <metadata
     id="metadata2167">
    <rdf:RDF>
      <cc:Work
         rdf:about="">
        <dc:format>image/svg+xml</dc:format>
        <dc:type
           rdf:resource="http://purl.org/dc/dcmitype/StillImage" />
      </cc:Work>
    </rdf:RDF>
  </metadata>
  <defs
     id="defs2165" />
  <sodipodi:namedview
     inkscape:document-rotation="0"
     pagecolor="#ffffff"
     bordercolor="#666666"
     borderopacity="1"
     objecttolerance="10"
     gridtolerance="10"
     guidetolerance="10"
     inkscape:pageopacity="0"
     inkscape:pageshadow="2"
     inkscape:window-width="1920"
     inkscape:window-height="1017"
     id="namedview2163"
     showgrid="false"
     inkscape:zoom="1.7562021"
     inkscape:cx="240.28324"
     inkscape:cy="54.106543"
     inkscape:window-x="-8"
     inkscape:window-y="-8"
     inkscape:window-maximized="1"
     inkscape:current-layer="svg2161" />
  <!-- Generator: Sketch 54 (76480) - https://sketchapp.com -->
  <title
     id="title2141">KubeSphere®.svg</title>
  <desc
     id="desc2143">Created with Sketch.</desc>
  <path
     id="path2494"
     d="m 58.864067,67.077804 a 3.8210596,3.8210596 0 0 1 -2.889801,1.463241 l -1.925197,10.533847 12.236665,-0.01662 c 5.703413,-0.0078 9.363591,-0.05457 11.145966,-0.141567 a 3.8210602,3.8210602 0 0 1 0.06304,-0.588047 z"
     style="fill:#80e5ff;fill-opacity:1;stroke-width:0.29345" />
  <path
     id="path2492"
     d="M 52.409299,66.372261 24.075834,76.745055 a 3.8210602,3.8210602 0 0 1 -0.439603,1.754972 c 0.207259,0.05202 0.437328,0.105359 0.702104,0.1622 1.197813,0.257258 5.627379,0.371181 15.114429,0.388593 l 12.974302,0.02407 1.977353,-10.818127 a 3.8210596,3.8210596 0 0 1 -1.99512,-1.884504 z"
     style="fill:#2ad4ff;fill-opacity:1;stroke-width:0.29345" />
  <path
     id="path2490"
     d="m 70.348763,54.688683 -11.064581,8.347296 a 3.8210596,3.8210596 0 0 1 0.392605,1.686195 3.8210596,3.8210596 0 0 1 -0.111188,0.915314 l 18.551584,11.202709 a 3.8210602,3.8210602 0 0 1 2.16993,-1.511386 L 73.092985,55.394226 a 3.8210602,3.8210602 0 0 1 -0.488892,0.03209 3.8210602,3.8210602 0 0 1 -2.25533,-0.737638 z"
     style="fill:#80e5ff;fill-opacity:1;stroke-width:0.29345" />
  <path
     id="path2488"
     d="m 42.574689,54.191765 a 3.8210593,3.8210593 0 0 1 -2.055301,0.600083 3.8210593,3.8210593 0 0 1 -1.965317,-0.544486 L 23.197775,74.283393 a 3.8210602,3.8210602 0 0 1 0.547927,0.883218 L 52.035608,64.809866 a 3.8210596,3.8210596 0 0 1 -0.0011,-0.08769 3.8210596,3.8210596 0 0 1 0.569707,-2.006583 z"
     style="fill:#2ad4ff;fill-opacity:1;stroke-width:0.29345" />
  <path
     id="path2486"
     d="m 75.54032,54.049626 a 3.8210602,3.8210602 0 0 1 -0.942825,0.815013 l 7.365497,20.408004 a 3.8210602,3.8210602 0 0 1 3.109316,3.753532 3.8210602,3.8210602 0 0 1 -5.87e-4,0.02694 c 0.529476,0.0067 1.213445,-0.0066 2.072495,-0.04012 2.955368,-0.115691 3.770066,-0.262372 5.704523,-1.025358 4.398816,-1.734984 7.555291,-4.616793 9.672411,-8.831031 0.84387,-1.679785 1.1936,-2.708613 1.08668,-3.248018 z"
     style="fill:#80e5ff;fill-opacity:1;stroke-width:0.29345" />
  <path
     id="path2484"
     d="m 36.919459,52.249946 -25.799013,3.056588 a 3.8210602,3.8210602 0 0 1 -3.7563984,3.121353 3.8210602,3.8210602 0 0 1 -0.2275387,-0.0069 l 0.1249457,1.0821 c 0.6754891,5.84926 3.4690754,11.011117 7.9684464,14.722397 0.529354,0.436643 1.045197,0.831601 1.458656,1.123939 a 3.8210602,3.8210602 0 0 1 3.566687,-2.450199 3.8210602,3.8210602 0 0 1 1.690207,0.394898 L 37.383134,53.152078 a 3.8210593,3.8210593 0 0 1 -0.463675,-0.902132 z"
     style="fill:#2ad4ff;fill-opacity:1;stroke-width:0.29345" />
  <path
     id="path2482"
     d="m 44.123329,52.241351 a 3.8210593,3.8210593 0 0 1 -0.408653,0.824758 l 9.995091,8.495166 a 3.8210596,3.8210596 0 0 1 2.145858,-0.660264 3.8210596,3.8210596 0 0 1 2.441028,0.882072 l 10.98606,-8.289408 a 3.8210602,3.8210602 0 0 1 -0.354779,-0.848829 z"
     style="fill:#00ccff;fill-opacity:1;stroke-width:0.29345" />
  <path
     id="path2480"
     d="m 94.267285,45.05181 a 3.8210602,3.8210602 0 0 1 -3.060024,1.533165 3.8210602,3.8210602 0 0 1 -2.759126,-1.177242 l -12.035489,5.890793 a 3.8210602,3.8210602 0 0 1 0.01262,0.306633 3.8210602,3.8210602 0 0 1 -0.140994,1.027077 l 27.768338,11.731722 c 0.32465,-0.901034 0.47225,-2.811264 0.3032,-4.713551 -0.21388,-2.406779 -1.48281,-6.169632 -2.74193,-8.131793 -1.3688,-2.133087 -4.742978,-5.185408 -6.918443,-6.258178 C 94.53277,45.180247 94.403924,45.118 94.267294,45.05181 Z"
     style="fill:#80e5ff;fill-opacity:1;stroke-width:0.29345" />
  <path
     id="path2478"
     d="m 25.754005,35.806394 c -0.318308,0.06408 -0.710351,0.147318 -1.266079,0.26422 -7.461614,1.569606 -13.511907,6.823121 -15.9449174,13.844912 l -0.3347169,0.965177 a 3.8210602,3.8210602 0 0 1 2.8685943,2.824462 l 25.634521,-3.037672 a 3.8210593,3.8210593 0 0 1 0.699238,-1.917175 z"
     style="fill:#5162ff;fill-opacity:1;stroke-width:0.29345" />
  <path
     id="path2476"
     d="M 55.067549,32.933788 A 3.8210602,3.8210602 0 0 1 52.96525,33.564246 3.8210602,3.8210602 0 0 1 51.79374,33.379695 L 43.06129,48.11814 a 3.8210593,3.8210593 0 0 1 1.264933,2.530437 l 24.497973,0.398911 a 3.8210602,3.8210602 0 0 1 0.633326,-1.610539 z"
     style="fill:#00ccff;fill-opacity:1;stroke-width:0.29345" />
  <path
     id="path2474"
     d="m 49.589994,31.532446 -21.339939,4.660822 10.338405,11.48011 a 3.8210593,3.8210593 0 0 1 1.930928,-0.523854 3.8210593,3.8210593 0 0 1 1.155462,0.17882 l 8.735889,-14.744748 a 3.8210602,3.8210602 0 0 1 -0.820745,-1.05115 z"
     style="fill:#5162ff;fill-opacity:1;stroke-width:0.29345" />
  <path
     id="path2472"
     d="m 80.908401,30.826331 c -1.129723,-0.0055 -2.528488,0.155112 -3.107596,0.357068 l -0.609825,0.212637 -2.881205,16.790308 a 3.8210602,3.8210602 0 0 1 1.635184,1.56526 l 11.6618,-5.707959 A 3.8210602,3.8210602 0 0 1 87.386096,42.76381 3.8210602,3.8210602 0 0 1 90.52235,39.005121 c -0.925649,-4.667756 -4.991388,-8.156332 -9.613949,-8.17879 z"
     style="fill:#00ccff;fill-opacity:1;stroke-width:0.29345" />
  <path
     id="path2470"
     d="m 56.629945,30.825183 a 3.8210602,3.8210602 0 0 1 -0.440176,0.968616 L 70.618142,48.34052 a 3.8210602,3.8210602 0 0 1 1.985951,-0.556523 3.8210602,3.8210602 0 0 1 0.155321,0.0034 L 75.421105,32.27578 Z"
     style="fill:#00ccff;fill-opacity:1;stroke-width:0.29345" />
  <path
     id="path2468"
     d="m 41.015159,17.098342 c -0.413692,0.206548 -1.328094,0.713337 -2.293156,1.276968 -2.827399,1.651291 -6.734101,5.635048 -8.39544,8.56108 -1.312127,2.310985 -2.962814,6.600433 -2.969469,7.718553 -2.07e-4,0.03806 0.0012,0.06688 0.0017,0.100302 l 21.794444,-4.760551 a 3.8210602,3.8210602 0 0 1 -0.0086,-0.25161 3.8210602,3.8210602 0 0 1 0.894107,-2.45593 z"
     style="fill:#5162ff;fill-opacity:1;stroke-width:0.29345" />
  <path
     id="path2466"
     d="m 61.954469,16.725222 -6.240411,10.363624 a 3.8210602,3.8210602 0 0 1 1.03854,2.145858 L 75.603365,30.68992 C 75.469583,30.359489 75.278306,29.903569 75.029645,29.341309 72.879112,24.47855 68.346165,19.757583 63.483051,17.31499 62.677802,16.910539 62.24282,16.729756 61.954469,16.725222 Z"
     style="fill:#5162ff;fill-opacity:1;stroke-width:0.29345" />
  <path
     id="path1039-3-1"
     d="m 52.558317,14.599424 c -1.236133,-0.0204 -2.662241,0.04913 -3.68934,0.192005 -2.211646,0.307627 -5.589615,1.258196 -6.242131,1.720583 l 8.672843,9.792769 a 3.8210602,3.8210602 0 0 1 1.665561,-0.382859 3.8210602,3.8210602 0 0 1 1.423121,0.27511 l 6.125784,-10.172767 c -1.157613,-0.470026 -4.70817,-1.208169 -6.804388,-1.37383 -0.347983,-0.0275 -0.739408,-0.04424 -1.15145,-0.05101 z"
     style="fill:#5162ff;fill-opacity:1;stroke-width:0.29345" />
  <path
     d="m 131.1059,29.68104 q 8.73308,0 13.40951,3.098837 4.67643,3.042495 4.67643,10.028965 0,7.042813 -4.73277,10.197993 -4.73277,3.098837 -13.5222,3.098837 h -2.76078 v 13.07146 h -8.78943 V 30.695205 q 2.87346,-0.563425 6.08499,-0.788795 3.21152,-0.22537 5.63425,-0.22537 z m 0.56342,7.493552 q -0.95782,0 -1.91564,0.05634 -0.90148,0.05634 -1.57759,0.112685 v 11.2685 h 2.76078 q 4.56374,0 6.87378,-1.239535 2.31005,-1.239535 2.31005,-4.620085 0,-1.633933 -0.61977,-2.70444 -0.56343,-1.070508 -1.69028,-1.690275 -1.0705,-0.67611 -2.64809,-0.90148 -1.57759,-0.281713 -3.49324,-0.281713 z"
     style="font-style:normal;font-variant:normal;font-weight:bold;font-stretch:normal;font-size:56.3425px;line-height:1.25;font-family:Ubuntu;-inkscape-font-specification:Ubuntu;fill:#443d4e;fill-opacity:1;stroke:none;stroke-width:0.29345"
     id="path874" />
  <path
     d="m 167.13869,29.68104 q 8.78943,0 13.46585,3.15518 4.67643,3.098837 4.67643,9.69091 0,4.113002 -1.91564,6.704757 -1.85931,2.535413 -5.40888,4.000317 1.18319,1.464905 2.47907,3.38055 1.29587,1.859303 2.53541,3.943975 1.29588,2.02833 2.47907,4.28203 1.18319,2.197358 2.19736,4.338373 h -9.85994 q -1.07051,-1.915645 -2.19736,-3.887633 -1.07051,-1.971987 -2.2537,-3.83129 -1.12685,-1.859302 -2.2537,-3.493235 -1.12685,-1.690275 -2.2537,-3.042495 h -4.33837 v 14.254653 h -8.78943 V 30.695205 q 2.87347,-0.563425 5.91596,-0.788795 3.09884,-0.22537 5.52157,-0.22537 z m 0.50708,7.493552 q -0.95782,0 -1.74662,0.05634 -0.73245,0.05634 -1.40856,0.112685 v 10.59239 h 2.47907 q 4.95814,0 7.09915,-1.239535 2.14102,-1.239535 2.14102,-4.225688 0,-2.873467 -2.19736,-4.05666 -2.14101,-1.239535 -6.3667,-1.239535 z"
     style="font-style:normal;font-variant:normal;font-weight:bold;font-stretch:normal;font-size:56.3425px;line-height:1.25;font-family:Ubuntu;-inkscape-font-specification:Ubuntu;fill:#443d4e;fill-opacity:1;stroke:none;stroke-width:0.29345"
     id="path876" />
  <path
     d="m 199.72666,49.626285 q 0,2.873467 0.67611,5.183509 0.73245,2.310043 2.02833,4.000318 1.35222,1.633932 3.26787,2.535412 1.91564,0.90148 4.39471,0.90148 2.42273,0 4.33837,-0.90148 1.97199,-0.90148 3.26787,-2.535412 1.35222,-1.690275 2.02833,-4.000318 0.73245,-2.310042 0.73245,-5.183509 0,-2.873468 -0.73245,-5.18351 -0.67611,-2.366385 -2.02833,-4.000318 -1.29588,-1.690275 -3.26787,-2.591755 -1.91564,-0.90148 -4.33837,-0.90148 -2.47907,0 -4.39471,0.957823 -1.91565,0.90148 -3.26787,2.591755 -1.29588,1.633932 -2.02833,4.000317 -0.67611,2.310043 -0.67611,5.127168 z m 29.80518,0 q 0,5.014482 -1.52124,8.845772 -1.46491,3.774947 -4.05666,6.366702 -2.59176,2.535413 -6.19768,3.83129 -3.54958,1.295878 -7.66258,1.295878 -4.00032,0 -7.54989,-1.295878 -3.54958,-1.295877 -6.19768,-3.83129 -2.6481,-2.591755 -4.16934,-6.366702 -1.52125,-3.83129 -1.52125,-8.845772 0,-5.014483 1.57759,-8.78943 1.57759,-3.83129 4.22569,-6.423045 2.70444,-2.591755 6.19767,-3.887633 3.54958,-1.295877 7.43721,-1.295877 4.00032,0 7.5499,1.295877 3.54957,1.295878 6.19767,3.887633 2.6481,2.591755 4.16935,6.423045 1.52124,3.774947 1.52124,8.78943 z"
     style="font-style:normal;font-variant:normal;font-weight:bold;font-stretch:normal;font-size:56.3425px;line-height:1.25;font-family:Ubuntu;-inkscape-font-specification:Ubuntu;fill:#443d4e;fill-opacity:1;stroke:none;stroke-width:0.29345"
     id="path878" />
  <path
     d="m 246.97953,69.177132 q -2.31004,-4.901798 -4.56374,-10.197993 -2.2537,-5.296195 -4.28203,-10.479704 -2.02833,-5.18351 -3.77495,-9.91628 -1.69027,-4.73277 -2.92981,-8.451375 h 9.69091 q 1.12685,3.38055 2.42273,7.324525 1.35222,3.887632 2.70444,7.775265 1.40856,3.887632 2.70444,7.43721 1.29588,3.549577 2.42273,6.141332 1.0705,-2.591755 2.36638,-6.141332 1.35222,-3.549578 2.70444,-7.43721 1.40856,-3.887633 2.70444,-7.775265 1.35222,-3.943975 2.47907,-7.324525 h 9.35286 q -1.29588,3.718605 -2.98616,8.451375 -1.69027,4.73277 -3.7186,9.91628 -2.02833,5.183509 -4.28203,10.479704 -2.2537,5.296195 -4.56374,10.197993 z"
     style="font-style:normal;font-variant:normal;font-weight:bold;font-stretch:normal;font-size:56.3425px;line-height:1.25;font-family:Ubuntu;-inkscape-font-specification:Ubuntu;fill:#443d4e;fill-opacity:1;stroke:none;stroke-width:0.29345"
     id="path880" />
  <path
     d="M 278.05458,69.154152 V 30.1088 h 26.36829 v 7.380868 h -17.57886 v 7.662579 h 15.60687 v 7.21184 h -15.60687 v 9.409198 h 18.87474 v 7.380867 z"
     style="font-style:normal;font-variant:normal;font-weight:bold;font-stretch:normal;font-size:56.3425px;line-height:1.25;font-family:Ubuntu;-inkscape-font-specification:Ubuntu;opacity:0.6;fill:#443d4e;fill-opacity:0.79;stroke:none;stroke-width:0.29345"
     id="path883" />
  <path
     d="m 320.95763,61.998655 q 0.61977,0.05634 1.40856,0.112685 0.84514,0 1.97199,0 6.59207,0 9.74725,-3.324208 3.21153,-3.324207 3.21153,-9.183827 0,-6.141333 -3.0425,-9.296512 -3.04249,-3.15518 -9.63457,-3.15518 -0.90148,0 -1.8593,0.05634 -0.95782,0 -1.80296,0.112685 z m 25.41047,-12.39535 q 0,5.070825 -1.57759,8.845772 -1.57759,3.774948 -4.5074,6.254018 -2.87347,2.479069 -7.04281,3.718604 -4.16935,1.239535 -9.35286,1.239535 -2.36638,0 -5.52156,-0.22537 -3.15518,-0.169027 -6.19768,-0.788795 V 30.615883 q 3.0425,-0.563425 6.31036,-0.732453 3.32421,-0.22537 5.69059,-0.22537 5.01449,0 9.07115,1.12685 4.113,1.12685 7.04281,3.549578 2.92981,2.422727 4.5074,6.197675 1.57759,3.774947 1.57759,9.071142 z"
     style="font-style:normal;font-variant:normal;font-weight:bold;font-stretch:normal;font-size:56.3425px;line-height:1.25;font-family:Ubuntu;-inkscape-font-specification:Ubuntu;opacity:0.6;fill:#443d4e;fill-opacity:0.79;stroke:none;stroke-width:0.29345"
     id="path885" />
  <path
     d="m 372.69853,36.8699 q -6.14133,0 -8.90211,3.436893 -2.70444,3.380549 -2.70444,9.296512 0,2.873467 0.67611,5.239852 0.67611,2.310043 2.02833,4.000318 1.35222,1.690275 3.38055,2.648097 2.02833,0.90148 4.73277,0.90148 1.4649,0 2.47907,-0.05634 1.07051,-0.05634 1.8593,-0.22537 V 48.532797 h 8.78943 v 19.325477 q -1.57759,0.619768 -5.07082,1.295878 -3.49324,0.732452 -8.62041,0.732452 -4.39471,0 -8.00063,-1.35222 -3.54958,-1.35222 -6.08499,-3.943974 -2.53541,-2.591755 -3.94398,-6.366703 -1.35222,-3.774947 -1.35222,-8.620402 0,-4.901798 1.52125,-8.676745 1.52125,-3.774947 4.16935,-6.366702 2.64809,-2.648098 6.19767,-4.000318 3.60592,-1.35222 7.66258,-1.35222 2.76078,0 4.95814,0.394398 2.2537,0.338055 3.83129,0.845137 1.63393,0.45074 2.6481,0.957823 1.07051,0.507082 1.52125,0.788795 l -2.53542,7.042812 q -1.80296,-0.957822 -4.16934,-1.633932 -2.31004,-0.732453 -5.07083,-0.732453 z"
     style="font-style:normal;font-variant:normal;font-weight:bold;font-stretch:normal;font-size:56.3425px;line-height:1.25;font-family:Ubuntu;-inkscape-font-specification:Ubuntu;opacity:0.6;fill:#443d4e;fill-opacity:0.79;stroke:none;stroke-width:0.29345"
     id="path887" />
  <path
     d="M 393.16054,69.154152 V 30.1088 h 26.36829 v 7.380868 h -17.57886 v 7.662579 h 15.60687 v 7.21184 h -15.60687 v 9.409198 h 18.87473 v 7.380867 z"
     style="font-style:normal;font-variant:normal;font-weight:bold;font-stretch:normal;font-size:56.3425px;line-height:1.25;font-family:Ubuntu;-inkscape-font-specification:Ubuntu;opacity:0.6;fill:#443d4e;fill-opacity:0.79;stroke:none;stroke-width:0.29345"
     id="path889" />
</svg>
