<?xml version="1.0" encoding="UTF-8" standalone="no"?>
<svg
   xmlns:dc="http://purl.org/dc/elements/1.1/"
   xmlns:cc="http://creativecommons.org/ns#"
   xmlns:rdf="http://www.w3.org/1999/02/22-rdf-syntax-ns#"
   xmlns:svg="http://www.w3.org/2000/svg"
   xmlns="http://www.w3.org/2000/svg"
   xmlns:sodipodi="http://sodipodi.sourceforge.net/DTD/sodipodi-0.dtd"
   xmlns:inkscape="http://www.inkscape.org/namespaces/inkscape"
   width="428px"
   height="90px"
   viewBox="0 0 428 90"
   version="1.1"
   id="svg2161"
   sodipodi:docname="logo.svg"
   inkscape:version="1.0 (4035a4fb49, 2020-05-01)">
  <metadata
     id="metadata2167">
    <rdf:RDF>
      <cc:Work
         rdf:about="">
        <dc:format>image/svg+xml</dc:format>
        <dc:type
           rdf:resource="http://purl.org/dc/dcmitype/StillImage" />
      </cc:Work>
    </rdf:RDF>
  </metadata>
  <defs
     id="defs2165" />
  <sodipodi:namedview
     inkscape:document-rotation="0"
     pagecolor="#ffffff"
     bordercolor="#666666"
     borderopacity="1"
     objecttolerance="10"
     gridtolerance="10"
     guidetolerance="10"
     inkscape:pageopacity="0"
     inkscape:pageshadow="2"
     inkscape:window-width="1920"
     inkscape:window-height="1017"
     id="namedview2163"
     showgrid="false"
     inkscape:zoom="1.2418224"
     inkscape:cx="62.825382"
     inkscape:cy="48.693463"
     inkscape:window-x="-8"
     inkscape:window-y="-8"
     inkscape:window-maximized="1"
     inkscape:current-layer="svg2161" />
  <!-- Generator: Sketch 54 (76480) - https://sketchapp.com -->
  <title
     id="title2141">KubeSphere®.svg</title>
  <desc
     id="desc2143">Created with Sketch.</desc>
  <path
     id="path1039-3"
     d="m 63.75973,64.415497 a 3.7437806,3.7437806 0 0 1 -3.152556,1.725082 3.7437806,3.7437806 0 0 1 -0.442505,-0.02813 c -0.188114,0.728443 -0.428415,2.061186 -0.878258,4.595778 -0.406963,2.29294 -0.812295,4.52475 -0.900728,4.959633 l -0.161121,0.790697 12.601817,-0.01687 c 5.588091,-0.0084 9.174244,-0.05344 10.920543,-0.138625 a 3.7437811,3.7437811 0 0 1 0.12795,-0.868755 c -2.450687,-1.529905 -8.931034,-5.4911 -13.30434,-8.123995 z"
     style="fill:#c0571a;fill-opacity:1;stroke-width:0.287517" />
  <path
     id="path1037-2"
     d="m 57.088484,63.675355 -1.504408,0.491909 c -1.131889,0.369872 -7.837835,2.672543 -14.902519,5.116901 -6.457293,2.2342 -9.675984,3.362688 -11.304647,4.037565 a 3.7437811,3.7437811 0 0 1 0.09363,0.830543 3.7437811,3.7437811 0 0 1 -0.431285,1.743641 c 0.203017,0.05089 0.428501,0.103194 0.687925,0.158869 1.173562,0.251944 5.513543,0.363659 14.808743,0.380729 l 13.148221,0.02531 0.148186,-0.646927 c 0.166182,-0.726166 1.427081,-7.747602 1.729582,-9.631781 0.01125,-0.0703 0.01406,-0.118942 0.02249,-0.183053 a 3.7437806,3.7437806 0 0 1 -2.496094,-2.322609 z"
     style="fill:#c0571a;fill-opacity:1;stroke-width:0.287517" />
  <path
     id="path1035-8"
     d="m 74.643778,52.439796 c -0.696895,0.274719 -2.091752,1.279541 -5.603749,3.877514 -2.672513,1.976997 -4.482936,3.414284 -5.229741,4.141462 a 3.7437806,3.7437806 0 0 1 0.540779,1.937913 3.7437806,3.7437806 0 0 1 -0.346479,1.57237 l 3.277236,1.972161 c 2.080502,1.251873 4.365399,2.644593 5.077,3.094745 0.711602,0.450152 3.424772,2.097964 6.029413,3.661899 l 3.674261,2.206334 a 3.7437811,3.7437811 0 0 1 3.102565,-2.222643 C 84.541588,70.900906 83.274765,67.384044 81.783401,63.305876 L 78.06479,53.13891 a 3.7437811,3.7437811 0 0 1 -1.047877,0.149873 3.7437811,3.7437811 0 0 1 -2.373135,-0.849044 z"
     style="fill:#c0571a;fill-opacity:1;stroke-width:0.287517" />
  <path
     id="path1033-2"
     d="M 47.987921,51.790619 A 3.7437803,3.7437803 0 0 1 45.5811,52.66722 3.7437803,3.7437803 0 0 1 43.328707,51.91361 l -0.05005,0.0012 -8.167809,10.252865 c -3.452583,4.333909 -5.799905,7.373006 -7.019413,9.082568 a 3.7437811,3.7437811 0 0 1 1.111869,1.513938 c 0.07816,-0.02813 0.11332,-0.03823 0.198239,-0.06861 5.16428,-1.828841 25.671195,-8.880056 26.974807,-9.275179 0.235073,-0.07114 0.422736,-0.13975 0.576151,-0.211734 a 3.7437806,3.7437806 0 0 1 -0.08941,-0.812012 3.7437806,3.7437806 0 0 1 0.799668,-2.31192 C 57.342346,59.626757 56.570178,58.951036 54.911147,57.561101 53.200629,56.128058 50.89557,54.16183 49.78865,53.192214 48.948154,52.456009 48.3925,52.016401 47.987732,51.790579 Z"
     style="fill:#c0571a;fill-opacity:1;stroke-width:0.287517" />
  <path
     id="path1031-5"
     d="m 80.194742,51.523323 a 3.7437811,3.7437811 0 0 1 -1.639179,1.434194 l 0.41779,1.174771 c 0.290108,0.815444 1.647587,4.523007 3.016688,8.239146 1.369101,3.716141 2.8822,7.856366 3.362612,9.200497 0.13018,0.364447 0.282079,0.741152 0.442497,1.108524 a 3.7437811,3.7437811 0 0 1 3.43782,3.730959 3.7437811,3.7437811 0 0 1 -5.66e-4,0.02531 c 0.518771,0.0057 1.188838,-0.0057 2.030565,-0.03936 2.89562,-0.113319 3.69382,-0.257005 5.58917,-1.004625 4.309831,-1.699888 7.402491,-4.523428 9.476771,-8.652434 1.14548,-2.280118 1.36656,-3.341572 0.74744,-3.590029 -0.4021,-0.1614 -16.077688,-6.945911 -21.204297,-9.177467 -1.818544,-0.791597 -3.925206,-1.703036 -4.681112,-2.02553 z"
     style="fill:#c0571a;fill-opacity:1;stroke-width:0.287517" />
  <path
     id="path1029-6"
     d="m 41.722118,49.720745 c -0.480185,0 -17.391786,2.051484 -22.507646,2.73027 -0.89651,0.118942 -1.742741,0.227199 -2.38382,0.305481 a 3.7437811,3.7437811 0 0 1 -3.734332,3.473223 3.7437811,3.7437811 0 0 1 -0.222982,-0.0057 l 0.122317,1.060215 c 0.661829,5.730957 3.398903,10.788416 7.807299,14.424643 0.51865,0.427798 1.024055,0.814767 1.429161,1.101213 a 3.7437811,3.7437811 0 0 1 3.494537,-2.400664 3.7437811,3.7437811 0 0 1 1.7178,0.417788 c 1.173422,-1.303048 3.237447,-3.890756 7.338954,-9.041568 l 8.141433,-10.223642 a 3.7437803,3.7437803 0 0 1 -0.98331,-1.761046 c -0.08042,-0.04949 -0.155779,-0.07929 -0.219609,-0.07929 z"
     style="fill:#c0571a;fill-opacity:1;stroke-width:0.287517" />
  <path
     id="path1027-0"
     d="m 51.834588,49.576974 c -1.265848,0 -2.057867,0.0057 -2.575281,0.04555 a 3.7437803,3.7437803 0 0 1 -0.700267,1.570092 c 0.585375,0.68469 1.898632,1.860052 4.618778,4.229644 3.013904,2.6255 4.324095,3.739058 5.010753,4.11731 a 3.7437806,3.7437806 0 0 1 2.418603,-0.886695 3.7437806,3.7437806 0 0 1 2.576433,1.027653 c 0.735388,-0.344003 2.144191,-1.36626 5.442571,-3.788799 2.53316,-1.860556 4.672095,-3.459555 5.430789,-4.054407 A 3.7437811,3.7437811 0 0 1 73.310674,50.071216 L 64.54593,49.831363 C 59.43409,49.691333 53.713761,49.57689 51.834588,49.57689 Z"
     style="fill:#c0571a;fill-opacity:1;stroke-width:0.287517" />
  <path
     id="path1025-3"
     d="m 98.241979,43.124153 a 3.7437811,3.7437811 0 0 1 -2.99813,1.502158 3.7437811,3.7437811 0 0 1 -2.90773,-1.385353 c -0.950063,0.318642 -2.592176,1.059935 -5.745824,2.548904 l -5.951362,2.810015 a 3.7437811,3.7437811 0 0 1 0.121754,0.945098 3.7437811,3.7437811 0 0 1 -0.356575,1.594246 l 13.155547,5.682931 c 7.394401,3.194088 13.638241,5.779855 13.875451,5.746368 0.57354,-0.08098 0.91523,-2.620721 0.69124,-5.141001 -0.20949,-2.358118 -1.4528,-6.044874 -2.68646,-7.967349 -1.34113,-2.089952 -4.64707,-5.080517 -6.778521,-6.131594 -0.15943,-0.07845 -0.28561,-0.139469 -0.41947,-0.204423 z"
     style="fill:#c0571a;fill-opacity:1;stroke-width:0.287517" />
  <path
     id="path1023-0"
     d="m 31.876943,33.939376 c -0.262628,0.01406 -0.820953,0.136656 -2.003063,0.385226 -7.310696,1.537868 -13.238654,6.685138 -15.622444,13.564913 l -0.327948,0.945631 a 3.7437811,3.7437811 0 0 1 2.903228,3.335076 c 3.980653,-0.443432 17.632593,-2.098077 22.787314,-2.77183 l 2.228239,-0.29086 a 3.7437803,3.7437803 0 0 1 -0.0057,-0.184177 3.7437803,3.7437803 0 0 1 0.906349,-2.442785 L 37.58772,40.679149 c -3.015535,-3.393733 -5.482445,-6.306015 -5.482445,-6.471352 0,-0.186989 0.0329,-0.282115 -0.22973,-0.268534 z"
     style="fill:#c0571a;fill-opacity:1;stroke-width:0.287517" />
  <path
     id="path1021-4"
     d="m 60.21354,30.966497 a 3.7437811,3.7437811 0 0 1 -2.438286,0.902414 3.7437811,3.7437811 0 0 1 -1.52572,-0.325136 c -0.41523,0.714552 -2.319428,3.844754 -4.655305,7.645558 -2.309951,3.758657 -3.449631,5.614856 -3.943227,6.614561 a 3.7437803,3.7437803 0 0 1 1.665584,2.873479 c 1.683777,0.227199 5.977868,0.370632 16.716879,0.649148 3.874256,0.100383 7.097917,0.230292 7.163772,0.288637 0.02528,0.02249 0.05205,0.03655 0.07816,0.0523 a 3.7437811,3.7437811 0 0 1 -0.0027,-0.122317 3.7437811,3.7437811 0 0 1 0.991718,-2.538219 c -0.182497,-0.290409 -0.458112,-0.61757 -0.839542,-1.023716 -0.519807,-0.553489 -3.777102,-4.240865 -7.238431,-8.194213 z"
     style="fill:#c0571a;fill-opacity:1;stroke-width:0.287517" />
  <path
     id="path1019-6"
     d="m 54.282377,29.471088 c -1.082541,0.242102 -4.562598,0.992113 -8.662501,1.864355 -4.506809,0.958848 -9.229289,1.966003 -10.49435,2.238362 -1.26506,0.272469 -2.264737,0.620635 -2.221491,0.773826 0.0433,0.153247 2.436796,2.95432 5.319018,6.224835 2.884361,3.272904 4.282284,4.796404 5.03997,5.411134 a 3.7437803,3.7437803 0 0 1 2.318077,-0.804166 3.7437803,3.7437803 0 0 1 1.499937,0.313355 c 0.09392,-0.134688 0.193174,-0.28577 0.309417,-0.47619 0.399736,-0.654492 1.442097,-2.354379 2.316391,-3.777579 3.577458,-5.823413 5.268349,-8.58003 6.028848,-9.974886 a 3.7437811,3.7437811 0 0 1 -1.453316,-1.793046 z"
     style="fill:#c0571a;fill-opacity:1;stroke-width:0.287517" />
  <path
     id="path1017-44"
     d="m 85.153283,29.186386 c -1.106924,-0.0057 -2.47734,0.151841 -3.044749,0.349825 l -1.031595,0.359976 -0.792894,4.377322 c -0.436117,2.407721 -1.110341,6.222304 -1.498246,8.476666 l -0.559277,3.251956 a 3.7437811,3.7437811 0 0 1 2.231045,2.067062 c 0.968528,-0.412361 3.315566,-1.495212 5.986738,-2.767893 l 5.512744,-2.6264 a 3.7437811,3.7437811 0 0 1 -0.457093,-1.792453 3.7437811,3.7437811 0 0 1 3.072833,-3.682679 c -0.90693,-4.573367 -4.890432,-7.991392 -9.419506,-8.013382 z"
     style="fill:#c0571a;fill-opacity:1;stroke-width:0.287517" />
  <path
     id="path1015-8"
     d="m 61.452872,28.828126 a 3.7437811,3.7437811 0 0 1 -0.719333,1.591435 c 1.126323,1.674413 4.537262,5.622279 12.982014,15.170939 l 0.932726,1.054594 a 3.7437811,3.7437811 0 0 1 2.368634,-0.844012 3.7437811,3.7437811 0 0 1 0.596933,0.04781 c 0.639811,-3.278501 2.802361,-15.142401 2.797666,-15.421396 -9.25e-4,-0.09532 -1.393115,-0.259254 -3.093026,-0.364473 -3.246331,-0.201049 -12.669334,-0.935509 -15.227685,-1.186554 -0.253349,-0.02531 -0.456817,-0.03966 -0.637929,-0.04836 z"
     style="fill:#c0571a;fill-opacity:1;stroke-width:0.287517" />
  <path
     id="path1013-6"
     d="m 46.271838,15.636067 c -0.220452,0.08464 -1.323999,0.692451 -2.451755,1.351104 -2.770227,1.617894 -6.597914,5.521078 -8.22565,8.38795 -1.285587,2.264231 -2.902889,6.466937 -2.909413,7.562441 -0.0027,0.60011 0.03093,0.604581 1.793607,0.225793 0.988316,-0.212295 5.419655,-1.173786 9.847394,-2.136712 4.427741,-0.962897 8.780094,-1.893401 9.672216,-2.067625 0.04555,-0.0084 0.07872,-0.01687 0.121755,-0.02531 a 3.7437811,3.7437811 0 0 1 -0.08801,-0.809198 3.7437811,3.7437811 0 0 1 1.265736,-2.806079 L 51.50104,20.988265 c -3.119376,-3.557691 -4.970093,-5.45216 -5.229179,-5.352733 z"
     style="fill:#c0571a;fill-opacity:1;stroke-width:0.287517" />
  <path
     id="path1011-9"
     d="m 66.567523,15.369333 c -0.169556,8.71e-4 -0.28622,0.06552 -0.399847,0.18474 -0.201049,0.210891 -1.776091,2.712415 -3.500161,5.558815 l -2.50172,4.130806 a 3.7437811,3.7437811 0 0 1 1.353353,2.881324 3.7437811,3.7437811 0 0 1 -0.0027,0.183052 c 0.704572,0.09561 3.932177,0.371842 7.681497,0.653114 7.390413,0.554359 10.925575,0.724393 10.925575,0.525594 0,-0.05934 -0.328254,-0.849523 -0.728892,-1.755422 C 77.287395,22.966951 72.846124,18.341452 68.081357,15.94827 67.279497,15.545525 66.8515,15.36804 66.569106,15.369305 Z"
     style="fill:#c0571a;fill-opacity:1;stroke-width:0.287517" />
  <path
     id="path898-7"
     d="m 57.37656,13.28765 c -1.211128,-0.01968 -2.608405,0.04808 -3.614716,0.188113 -2.38247,0.331379 -6.157603,1.425985 -6.232708,1.807077 -0.02249,0.114444 2.029692,2.598449 4.559813,5.520067 l 3.631588,4.193117 a 3.7437811,3.7437811 0 0 1 2.054717,-0.614899 3.7437811,3.7437811 0 0 1 1.869417,0.500344 l 2.711178,-4.371699 c 1.851896,-2.985644 3.270709,-5.524904 3.152584,-5.643059 -0.419391,-0.41939 -4.648979,-1.343005 -7.003723,-1.529095 -0.34094,-0.02811 -0.72445,-0.0433 -1.12815,-0.05005 z"
     style="fill:#c0571a;fill-opacity:1;stroke-width:0.287517" />
  <path
     d="m 134.33542,28.064447 q 8.55647,0 13.13832,3.036165 4.58184,2.980962 4.58184,9.826134 0,6.900375 -4.63705,9.991743 -4.63705,3.036164 -13.24872,3.036164 h -2.70494 V 66.761749 H 122.8532 V 29.058101 q 2.81535,-0.55203 5.96192,-0.772842 3.14657,-0.220812 5.5203,-0.220812 z m 0.55203,7.341999 q -0.93845,0 -1.8769,0.0552 -0.88325,0.0552 -1.54568,0.110406 v 11.0406 h 2.70494 q 4.47145,0 6.73477,-1.214466 2.26332,-1.214466 2.26332,-4.526646 0,-1.600887 -0.60723,-2.649744 -0.55203,-1.048857 -1.65609,-1.65609 -1.04886,-0.662436 -2.59454,-0.883248 -1.54569,-0.276015 -3.42259,-0.276015 z"
     style="font-style:normal;font-variant:normal;font-weight:bold;font-stretch:normal;font-size:55.203px;line-height:1.25;font-family:Ubuntu;-inkscape-font-specification:Ubuntu;fill:#443d4e;fill-opacity:1;stroke:none;stroke-width:0.287517"
     id="path1127" />
  <path
     d="m 169.63947,28.064447 q 8.61166,0 13.19351,3.091368 4.58185,3.036165 4.58185,9.494916 0,4.029819 -1.8769,6.569157 -1.8217,2.484135 -5.29949,3.919413 1.15926,1.435277 2.42893,3.312179 1.26967,1.821699 2.48414,3.86421 1.26967,1.987308 2.42893,4.195428 1.15926,2.152917 2.15292,4.250631 h -9.66053 q -1.04885,-1.876902 -2.15291,-3.809007 -1.04886,-1.932105 -2.20812,-3.753804 -1.10406,-1.821699 -2.20812,-3.422586 -1.10406,-1.65609 -2.20812,-2.980962 h -4.25063 v 13.966359 h -8.61167 V 29.058101 q 2.81535,-0.55203 5.79631,-0.772842 3.03617,-0.220812 5.4099,-0.220812 z m 0.49682,7.341999 q -0.93845,0 -1.71129,0.0552 -0.71764,0.0552 -1.38007,0.110406 v 10.378164 h 2.42893 q 4.85786,0 6.95558,-1.214466 2.09771,-1.214466 2.09771,-4.140225 0,-2.815353 -2.15292,-3.974616 -2.09771,-1.214466 -6.23794,-1.214466 z"
     style="font-style:normal;font-variant:normal;font-weight:bold;font-stretch:normal;font-size:55.203px;line-height:1.25;font-family:Ubuntu;-inkscape-font-specification:Ubuntu;fill:#443d4e;fill-opacity:1;stroke:none;stroke-width:0.287517"
     id="path1129" />
  <path
     d="m 201.56837,47.606309 q 0,2.815353 0.66243,5.078675 0.71764,2.263323 1.98731,3.919413 1.32487,1.600887 3.20177,2.484135 1.8769,0.883248 4.30584,0.883248 2.37373,0 4.25063,-0.883248 1.9321,-0.883248 3.20177,-2.484135 1.32487,-1.65609 1.98731,-3.919413 0.71764,-2.263322 0.71764,-5.078675 0,-2.815353 -0.71764,-5.078676 -0.66244,-2.318526 -1.98731,-3.919413 -1.26967,-1.65609 -3.20177,-2.539338 -1.8769,-0.883248 -4.25063,-0.883248 -2.42894,0 -4.30584,0.938451 -1.8769,0.883248 -3.20177,2.539338 -1.26967,1.600887 -1.98731,3.919413 -0.66243,2.263323 -0.66243,5.023473 z m 29.20238,0 q 0,4.913066 -1.49048,8.66687 -1.43528,3.698601 -3.97462,6.237939 -2.53933,2.484135 -6.07233,3.753804 -3.47778,1.269669 -7.5076,1.269669 -3.91942,0 -7.39721,-1.269669 -3.47778,-1.269669 -6.07232,-3.753804 -2.59455,-2.539338 -4.08503,-6.237939 -1.49048,-3.753804 -1.49048,-8.66687 0,-4.913067 1.54569,-8.611668 1.54568,-3.753804 4.14022,-6.293142 2.64975,-2.539338 6.07233,-3.809007 3.47779,-1.269669 7.2868,-1.269669 3.91941,0 7.3972,1.269669 3.47779,1.269669 6.07233,3.809007 2.59454,2.539338 4.08502,6.293142 1.49048,3.698601 1.49048,8.611668 z"
     style="font-style:normal;font-variant:normal;font-weight:bold;font-stretch:normal;font-size:55.203px;line-height:1.25;font-family:Ubuntu;-inkscape-font-specification:Ubuntu;fill:#443d4e;fill-opacity:1;stroke:none;stroke-width:0.287517"
     id="path1131" />
  <path
     d="m 247.86556,66.761749 q -2.26332,-4.802661 -4.47144,-9.991743 -2.20812,-5.189081 -4.19543,-10.267757 -1.9873,-5.078676 -3.6986,-9.715728 -1.65609,-4.637052 -2.87055,-8.28045 h 9.49491 q 1.10406,3.31218 2.37373,7.17639 1.32487,3.809007 2.64975,7.618014 1.38007,3.809007 2.64974,7.286796 1.26967,3.477788 2.37373,6.017126 1.04886,-2.539338 2.31852,-6.017126 1.32488,-3.477789 2.64975,-7.286796 1.38007,-3.809007 2.64974,-7.618014 1.32487,-3.86421 2.42893,-7.17639 h 9.1637 q -1.26967,3.643398 -2.92576,8.28045 -1.65609,4.637052 -3.64339,9.715728 -1.98731,5.078676 -4.19543,10.267757 -2.20812,5.189082 -4.47145,9.991743 z"
     style="font-style:normal;font-variant:normal;font-weight:bold;font-stretch:normal;font-size:55.203px;line-height:1.25;font-family:Ubuntu;-inkscape-font-specification:Ubuntu;fill:#443d4e;fill-opacity:1;stroke:none;stroke-width:0.287517"
     id="path1133" />
  <path
     d="M 276.09953,66.739227 V 28.483549 h 25.835 v 7.231593 H 284.7112 v 7.507608 h 15.29123 v 7.065984 H 284.7112 v 9.2189 h 18.493 v 7.231593 z"
     style="font-style:normal;font-variant:normal;font-weight:bold;font-stretch:normal;font-size:55.203px;line-height:1.25;font-family:Ubuntu;-inkscape-font-specification:Ubuntu;opacity:0.6;fill:#443d4e;fill-opacity:0.79;stroke:none;stroke-width:0.287517"
     id="path1136" />
  <path
     d="m 318.13489,59.728446 q 0.60723,0.0552 1.38007,0.110406 0.82805,0 1.93211,0 6.45875,0 9.55012,-3.256977 3.14657,-3.256976 3.14657,-8.998088 0,-6.017127 -2.98097,-9.108495 -2.98096,-3.091368 -9.43971,-3.091368 -0.88325,0 -1.8217,0.0552 -0.93845,0 -1.76649,0.110406 z m 24.89655,-12.144659 q 0,4.96827 -1.54568,8.66687 -1.54569,3.698601 -4.41624,6.127533 -2.81536,2.428932 -6.90038,3.643398 -4.08502,1.214466 -9.1637,1.214466 -2.31852,0 -5.40989,-0.220812 -3.09137,-0.165609 -6.07233,-0.772842 V 28.980376 q 2.98096,-0.55203 6.18274,-0.717639 3.25697,-0.220812 5.5755,-0.220812 4.91307,0 8.88768,1.10406 4.02982,1.10406 6.90038,3.477789 2.87055,2.373729 4.41624,6.07233 1.54568,3.698601 1.54568,8.887683 z"
     style="font-style:normal;font-variant:normal;font-weight:bold;font-stretch:normal;font-size:55.203px;line-height:1.25;font-family:Ubuntu;-inkscape-font-specification:Ubuntu;opacity:0.6;fill:#443d4e;fill-opacity:0.79;stroke:none;stroke-width:0.287517"
     id="path1138" />
  <path
     d="m 368.82935,35.107909 q -6.01712,0 -8.72207,3.367383 -2.64974,3.31218 -2.64974,9.108495 0,2.815353 0.66243,5.133879 0.66244,2.263322 1.98731,3.919412 1.32487,1.65609 3.31218,2.594541 1.98731,0.883248 4.63705,0.883248 1.43528,0 2.42893,-0.0552 1.04886,-0.0552 1.8217,-0.220812 V 46.53493 h 8.61167 v 18.934628 q -1.54568,0.607233 -4.96827,1.269669 -3.42258,0.717639 -8.44606,0.717639 -4.30583,0 -7.83882,-1.324872 -3.47779,-1.324872 -5.96193,-3.86421 -2.48413,-2.539338 -3.86421,-6.237939 -1.32487,-3.6986 -1.32487,-8.446058 0,-4.802661 1.49048,-8.501262 1.49048,-3.698601 4.08502,-6.237939 2.59455,-2.594541 6.07233,-3.919413 3.533,-1.324872 7.50761,-1.324872 2.70495,0 4.85787,0.386421 2.20812,0.331218 3.7538,0.828045 1.60089,0.441624 2.59454,0.938451 1.04886,0.496827 1.49048,0.772842 l -2.48413,6.900375 q -1.7665,-0.938451 -4.08503,-1.600887 -2.26332,-0.717639 -4.96827,-0.717639 z"
     style="font-style:normal;font-variant:normal;font-weight:bold;font-stretch:normal;font-size:55.203px;line-height:1.25;font-family:Ubuntu;-inkscape-font-specification:Ubuntu;opacity:0.6;fill:#443d4e;fill-opacity:0.79;stroke:none;stroke-width:0.287517"
     id="path1140" />
  <path
     d="M 388.87753,66.739227 V 28.483549 h 25.835 v 7.231593 H 397.4892 v 7.507608 h 15.29123 v 7.065984 H 397.4892 v 9.2189 h 18.493 v 7.231593 z"
     style="font-style:normal;font-variant:normal;font-weight:bold;font-stretch:normal;font-size:55.203px;line-height:1.25;font-family:Ubuntu;-inkscape-font-specification:Ubuntu;opacity:0.6;fill:#443d4e;fill-opacity:0.79;stroke:none;stroke-width:0.287517"
     id="path1142" />
</svg>
